<?xml version="1.0" standalone="no"?><!DOCTYPE svg PUBLIC "-//W3C//DTD SVG 1.1//EN" "http://www.w3.org/Graphics/SVG/1.1/DTD/svg11.dtd"><svg t="1731295858782" class="icon" viewBox="0 0 1024 1024" version="1.1" xmlns="http://www.w3.org/2000/svg" p-id="2462" xmlns:xlink="http://www.w3.org/1999/xlink" width="200" height="200"><path d="M515.553882 90.352941A395.083294 395.083294 0 0 0 120.470588 485.436235a30.117647 30.117647 0 0 1-60.235294 0 455.318588 455.318588 0 0 1 910.637177 0 30.117647 30.117647 0 1 1-60.235295 0A395.083294 395.083294 0 0 0 515.493647 90.352941z m330.691765 735.232A198.294588 198.294588 0 0 1 648.011294 1024H548.924235a197.692235 197.692235 0 0 1-148.720941-67.222588l-196.72847-207.390118a67.945412 67.945412 0 0 1 1.204705-94.750118 66.078118 66.078118 0 0 1 93.424942 0l69.089882 69.150118V362.616471a66.078118 66.078118 0 1 1 132.156235 0v157.093647a57.825882 57.825882 0 1 1 115.651765 0v33.069176a57.825882 57.825882 0 1 1 115.651765 0V602.352941a57.825882 57.825882 0 1 1 115.591529 0v223.232zM301.176471 421.647059a210.823529 210.823529 0 1 1 421.647058 0 30.117647 30.117647 0 0 0 60.235295 0 271.058824 271.058824 0 1 0-542.117648 0 30.117647 30.117647 0 0 0 60.235295 0z" fill="#4A5257" fill-opacity=".8" p-id="2463"></path></svg>