<?xml version="1.0" standalone="no"?><!DOCTYPE svg PUBLIC "-//W3C//DTD SVG 1.1//EN" "http://www.w3.org/Graphics/SVG/1.1/DTD/svg11.dtd"><svg t="1731295869128" class="icon" viewBox="0 0 1024 1024" version="1.1" xmlns="http://www.w3.org/2000/svg" p-id="2934" xmlns:xlink="http://www.w3.org/1999/xlink" width="200" height="200"><path d="M548.352 253.76c34.688 0 71.872 24.32 76.672 57.92l0.512 7.296v96.64c10.24-10.24 29.312-10.24 35.648-10.24 44.224 0 80.576 34.368 84.288 78.08a78.592 78.592 0 0 1 107.456 65.216l0.384 8.128v178.176c0 54.976-17.6 108.416-50.112 152.448a251.712 251.712 0 0 1-153.664 97.6l-14.272 2.368-9.6 1.28a350.976 350.976 0 0 1-102.272-0.896 261.696 261.696 0 0 1-146.88-76.16l-10.496-11.392-180.8-208.896a86.144 86.144 0 0 1 0.96-113.664 83.84 83.84 0 0 1 107.84-14.72l7.168 5.12 51.008 40.704V395.712a84.48 84.48 0 0 1 83.968-84.928c12.864 0 25.088 2.944 36.032 8.192a77.44 77.44 0 0 1 76.16-65.216z m0 49.536c-15.552 0-28.16 12.8-28.16 28.544v227.712a24.64 24.64 0 0 1-24.576 24.832 24.64 24.64 0 0 1-24.512-24.832v-163.84a35.2 35.2 0 0 0-34.944-35.328 35.2 35.2 0 0 0-34.944 35.328v228.8a38.208 38.208 0 0 1-37.76 38.208 80 80 0 0 1-19.264-1.792 35.2 35.2 0 0 1-13.888-6.4l-59.52-47.616a35.2 35.2 0 0 0-48.32 4.096 36.16 36.16 0 0 0-0.384 47.68l180.864 208.896c33.024 38.208 78.336 63.36 128 71.168 29.184 4.608 58.88 4.864 88.128 0.832l9.6-1.28a202.56 202.56 0 0 0 135.232-80.576c26.24-35.456 40.32-78.464 40.32-122.752V556.8a29.44 29.44 0 0 0-29.184-29.568 29.44 29.44 0 0 0-29.248 29.568v16.448a24.64 24.64 0 0 1-24.512 24.768 24.64 24.64 0 0 1-24.512-24.768V490.944a35.84 35.84 0 0 0-35.584-35.968 35.84 35.84 0 0 0-35.648 35.968v81.92a24.64 24.64 0 0 1-24.512 24.768 24.64 24.64 0 0 1-24.512-24.832V331.84a28.352 28.352 0 0 0-28.16-28.544zM508.8 154.88a352 352 0 0 1 248.896 103.168 32 32 0 1 1-45.248 45.248 288 288 0 0 0-407.296 0 32 32 0 0 1-45.248-45.248A352 352 0 0 1 508.8 154.88zM508.8 32a480 480 0 0 1 339.392 140.608 32 32 0 1 1-45.248 45.248 416 416 0 0 0-588.288 0 32 32 0 1 1-45.312-45.248A480 480 0 0 1 508.8 32z" p-id="2935"></path></svg>