<?xml version="1.0" standalone="no"?><!DOCTYPE svg PUBLIC "-//W3C//DTD SVG 1.1//EN" "http://www.w3.org/Graphics/SVG/1.1/DTD/svg11.dtd"><svg t="1731295865868" class="icon" viewBox="0 0 1109 1024" version="1.1" xmlns="http://www.w3.org/2000/svg" p-id="2777" xmlns:xlink="http://www.w3.org/1999/xlink" width="216.6015625" height="200"><path d="M558.933333 403.2c-38.4 0-70.4 32-70.4 70.4 0 38.4 32 70.4 64 70.4L533.333333 486.4c0-19.2 19.2-38.4 38.4-32l57.6 19.2c0-38.4-32-70.4-70.4-70.4z m0-147.2c108.8 0 198.4 76.8 217.6 179.2 0 12.8-6.4 25.6-19.2 32C738.133333 467.2 725.333333 460.8 725.333333 448 712.533333 364.8 642.133333 307.2 558.933333 307.2c-44.8 0-89.6 19.2-115.2 51.2-32 32-51.2 76.8-51.2 115.2C392.533333 556.8 450.133333 627.2 533.333333 640c6.4 0 19.2 6.4 19.2 19.2 6.4 6.4 0 19.2-6.4 25.6-6.4 6.4-12.8 6.4-25.6 6.4C418.133333 672 341.333333 582.4 341.333333 473.6 341.333333 352 437.333333 256 558.933333 256zM603.733333 518.4l140.8 416 96-172.8c0-6.4 6.4-6.4 12.8-12.8l166.4-96L603.733333 518.4z m-44.8-166.4c32 0 70.4 12.8 89.6 38.4s32 64 32 96l409.6 134.4c19.2 6.4 25.6 38.4 6.4 44.8l-217.6 128-121.6 217.6c-12.8 19.2-38.4 19.2-44.8-6.4L578.133333 595.2c-44.8 6.4-89.6-12.8-115.2-51.2s-25.6-83.2-6.4-128c19.2-38.4 57.6-64 102.4-64z" fill="#343434" p-id="2778"></path></svg>