<?xml version="1.0" standalone="no"?><!DOCTYPE svg PUBLIC "-//W3C//DTD SVG 1.1//EN" "http://www.w3.org/Graphics/SVG/1.1/DTD/svg11.dtd"><svg t="1731295881400" class="icon" viewBox="0 0 1024 1024" version="1.1" xmlns="http://www.w3.org/2000/svg" p-id="3581" xmlns:xlink="http://www.w3.org/1999/xlink" width="200" height="200"><path d="M493.89 327.88c9.81 0 17.76 7.95 17.76 17.76v195.31H653.7c9.81 0 17.76 7.95 17.76 17.76v17.76c0 9.81-7.95 17.76-17.76 17.76H476.13c-9.81 0-17.76-7.95-17.76-17.76V345.63c0-9.81 7.95-17.76 17.76-17.76h17.76z m326.03 296.1L627.8 810.77v26.29h27.6l193.36-185.44-28.84-27.64zM502.77 150.32c196.12 0 355.12 158.99 355.12 355.12 0 14.71-11.92 26.63-26.63 26.63-14.71 0-26.63-11.92-26.63-26.63 0-166.71-135.14-301.85-301.85-301.85S200.92 338.73 200.92 505.43s135.14 301.85 301.85 301.85c14.71 0 26.63 11.92 26.63 26.63s-11.92 26.63-26.63 26.63c-196.12 0-355.12-158.99-355.12-355.12s158.99-355.1 355.12-355.1zM827.9 572.1l69.72 68.19c6.21 6.03 6.21 15.8 0 21.83L679.74 878.86l-87.96-9.63-9.11-80.95L805.41 572.1c6.21-6.03 16.28-6.03 22.49 0z" p-id="3582"></path></svg>