<?xml version="1.0" standalone="no"?><!DOCTYPE svg PUBLIC "-//W3C//DTD SVG 1.1//EN" "http://www.w3.org/Graphics/SVG/1.1/DTD/svg11.dtd"><svg t="1731295791054" class="icon" viewBox="0 0 1024 1024" version="1.1" xmlns="http://www.w3.org/2000/svg" p-id="2909" xmlns:xlink="http://www.w3.org/1999/xlink" width="200" height="200"><path d="M761.856 491.008c5.12 0 9.728 1.024 13.824 3.072 10.24 3.584 16.896 13.824 16.896 26.112v303.104l-36.864 143.872c-3.072 14.336 5.632 28.672 19.968 31.744 13.824 3.072 28.16-5.632 32.256-18.944l37.376-147.968c0.512-2.048 1.024-4.608 1.024-6.656v-305.152c0-47.616-31.744-67.072-50.688-74.24-10.752-4.608-22.528-6.656-33.28-6.656-9.216 0-19.968 2.048-31.744 6.656-2.048 0.512-4.096 0-5.12-2.048-7.68-19.456-23.552-34.304-44.032-41.984-10.24-4.608-22.016-6.656-33.792-6.656-11.264 0-22.016 2.048-32.256 6.656h-0.512c-5.12 1.536-9.728 3.584-14.336 6.656-1.536 1.024-3.584 1.024-5.12-0.512-6.656-7.168-15.872-13.312-27.648-18.944-12.288-3.584-23.552-5.12-33.792-5.12s-18.432 1.024-25.6 3.072c-1.024 0.512-2.56 0-3.584-0.512-1.024-0.512-1.536-2.048-1.536-3.072v-179.2c0-35.328-18.432-62.976-50.176-74.752-9.728-4.096-19.968-6.144-33.792-6.144-12.8 0-23.552 2.048-33.28 6.144-31.744 12.288-50.176 39.424-50.176 74.752v327.168c0 1.024-0.512 2.56-1.536 3.072-1.024 0.512-2.56 1.024-3.584 0.512-8.704-3.584-17.92-4.096-25.088-4.096-11.264 0-22.528 2.048-33.792 6.144-31.232 11.776-50.176 39.936-50.176 74.752v148.48c0 76.288 2.56 79.36 45.056 133.12l8.704 10.752 67.072 83.968c4.096 5.632 9.728 8.704 16.384 9.728 7.168 1.024 14.848-0.512 20.48-5.12 5.632-4.096 9.216-10.24 9.728-16.896 1.024-6.656-1.024-13.824-5.12-18.944l-75.264-95.232c-31.232-38.912-33.792-41.984-33.792-101.888v-148.48c0-13.312 6.144-23.04 16.896-26.624 4.096-2.56 9.216-2.56 13.312-2.56 4.608 0 9.216 0 13.312 2.56 10.24 3.584 16.384 12.8 16.896 25.6v130.048c0 14.336 11.776 25.6 26.624 25.6 14.848 0 26.112-11.264 26.112-25.6V204.288c0-13.312 6.144-23.04 16.896-27.648 8.704-3.072 18.432-3.072 26.624 0 11.264 4.608 17.408 14.336 17.408 27.648V552.96c0 14.848 11.776 26.112 26.112 26.112 7.168 0 13.824-2.56 18.944-7.68s7.68-11.776 7.68-18.432v-89.6c1.024-12.8 7.168-22.528 17.408-26.112 8.704-3.072 17.92-3.072 26.624 0 10.24 3.584 16.896 13.824 16.896 27.648V552.96c0 14.848 11.776 26.112 26.624 26.112h0.512c14.336 0 26.624-11.776 26.624-26.112v-78.336c0.512-11.264 6.656-20.992 16.384-25.6 0.512 0 0.512-0.512 1.024-0.512 4.096-1.024 8.704-1.536 12.8-1.536 4.608 0 8.704 0.512 12.8 1.536h0.512c11.264 4.608 16.896 14.336 16.896 27.648v76.8c0.512 14.848 12.288 26.112 26.624 26.112h0.512c14.848 0 26.112-11.776 26.112-26.112v-33.792c0.512-12.288 7.168-22.016 17.408-25.088 4.608-1.536 9.728-3.072 14.336-3.072z" p-id="2910"></path><path d="M283.136 370.688c-7.168 0-13.824-3.072-18.944-8.192-35.328-38.912-54.784-89.6-54.784-141.824 0-116.224 94.72-210.944 210.944-210.944s210.944 94.72 210.944 210.944c0 52.736-19.456 102.912-54.784 141.824-9.728 10.24-25.6 11.264-36.352 1.536-10.24-9.728-11.264-25.6-1.536-36.352 26.624-29.696 41.472-67.584 41.472-107.52 0-88.064-71.68-159.744-159.744-159.744s-159.744 71.68-159.744 159.744c0 39.936 14.848 78.336 41.472 107.52 9.728 10.24 8.704 26.624-1.536 36.352-5.12 4.096-11.264 6.656-17.408 6.656z" p-id="2911"></path></svg>