<?xml version="1.0" standalone="no"?><!DOCTYPE svg PUBLIC "-//W3C//DTD SVG 1.1//EN" "http://www.w3.org/Graphics/SVG/1.1/DTD/svg11.dtd"><svg t="1731295781835" class="icon" viewBox="0 0 1024 1024" version="1.1" xmlns="http://www.w3.org/2000/svg" p-id="2595" xmlns:xlink="http://www.w3.org/1999/xlink" width="200" height="200"><path d="M249.021316 480.673039C186.341396 431.817999 146.029664 355.606176 146.029664 269.978117 146.029664 122.530068 265.559975 2.999757 413.008024 2.999757c147.448049 0 266.97836 119.530312 266.97836 266.97836 0 12.634976-0.877929 25.064968-2.575791 37.231982l-77.435724-34.591196c0.011999-0.878929 0.017999-1.759857 0.017999-2.640786 0-103.26863-83.716214-186.984844-186.984844-186.984844s-186.984844 83.716214-186.984844 186.984844c0 32.591358 8.338324 63.234875 22.998136 89.915712v120.77921zM127.229187 703.655965c-24.235036-24.253034-34.757183-55.785478-30.130557-89.739726 3.7067-27.202795 17.217604-54.333596 36.657028-73.77302 18.735481-18.735481 46.806206-29.937573 76.437805-30.714511 31.490448-0.825933 60.753076 10.103181 81.471396 30.683513l11.811043 11.768047V273.02187C303.475902 211.699841 353.506847 161.98687 415.15785 161.98687c60.972058 0 108.798181 48.965031 108.798181 111.035v55.814476c7.371403-1.666865 11.749048-2.301813 17.054618-2.301813 37.922926 0 71.726186 19.12645 91.620573 51.244846a113.575794 113.575794 0 0 1 35.009163-5.542551c37.792937 0 71.506204 19.018458 91.421589 50.975869 10.535146-3.537713 21.378267-5.272573 32.873336-5.272573 62.561929 0 110.181069 48.216092 110.222066 111.067997v173.695922c0 51.32384-2.315812 87.385917-7.756371 119.656301-7.101424 42.112587-19.654407 76.030837-38.662867 104.008569-44.932358 66.134639-125.171854 97.620087-247.164966 97.620088-54.272601 0-97.019136-5.262573-132.721242-16.390672-31.45445-9.803205-57.898307-24.126044-84.814125-45.863282-7.206416-4.506635-13.682891-9.609221-19.438425-15.328758l-244.371192-242.750324z m319.996063-421.485836c0-19.86339-13.430911-34.629193-32.034403-34.629193-19.315434 0-34.953167 15.518742-34.953167 34.629193v453.953205l-11.079102-11.001109a49792.55108 49792.55108 0 0 1-14.934789-14.837797c-11.399076-11.329082-23.19612-23.058131-34.760183-34.567198l-12.848959-12.774965a287984.877476 287984.877476 0 0 0-61.286032-60.915062c-15.019783-14.900792-41.669622-14.378835-55.897469-0.151988-16.086696 16.118694-17.691566 37.933925-1.446883 54.178609L419.252518 885.798202c43.006514 42.713538 99.338948 61.751995 189.289657 61.751995 102.513691 0 160.74997-23.613086 189.62863-70.537283 12.510986-20.329352 19.901387-45.335325 23.658082-77.257738 2.929763-24.879983 3.536713-46.843203 3.536713-97.086131l0.095992-168.180368c0-16.191688-6.085507-25.670919-16.432668-30.765506-3.479718-1.712861-7.263411-2.815772-11.0981-3.406724a40.680703 40.680703 0 0 0-3.964679-0.418966c-1.249899-0.028998-1.915845-0.041997-1.996838-0.037997-17.990542 0-29.253629 13.873875-29.253629 34.629193v90.849636c-0.082993 0.764938-0.082993 1.223901-0.039996 2.444802 0.039997 17.904549-14.972786 31.727428-31.417454 31.727429-16.418669 0-31.357458-13.832879-31.357458-29.927575 0-1.774856 0.155987-3.549712 0.451963-5.206578l-0.451963-131.957304c0-14.288842-6.311488-23.501095-17.229604-29.267628-3.960679-2.09183-8.26433-3.563711-12.57498-4.502635a49.161015 49.161015 0 0 0-4.137665-0.725941c-18.810475-0.012999-29.721591 13.714888-29.721591 34.497204v105.476451c-0.083993 0.764938-0.083993 1.223901-0.039997 2.443802 0.039997 17.89055-14.512824 31.144476-30.982488 31.144475-16.566657 0-31.942411-13.330919-31.942411-29.343621 0-1.773856 0.154987-3.549712 0.450963-5.206578l-0.450963-150.217824c0-16.126693-4.864606-25.839906-12.823961-31.173474a25.718915 25.718915 0 0 0-8.623301-3.6927 23.046132 23.046132 0 0 0-2.769775-0.463963c-17.124612-0.056995-25.097966 12.45899-25.097966 35.330137v114.625709c-0.083993 0.765938-0.083993 1.224901-0.039997 2.445801 0.039997 10.24317-5.699538 18.143529-14.615815 24.284032-7.801368 5.372565-17.340594 8.815285-25.064969 8.815285-16.914629 0-37.011-15.395752-37.011-31.300462 0-1.775856 0.155987-3.553712 0.452964-5.212578l-0.452964-278.20445z" fill="#000000" p-id="2596"></path></svg>