<?xml version="1.0" standalone="no"?><!DOCTYPE svg PUBLIC "-//W3C//DTD SVG 1.1//EN" "http://www.w3.org/Graphics/SVG/1.1/DTD/svg11.dtd"><svg t="1731295854706" class="icon" viewBox="0 0 1024 1024" version="1.1" xmlns="http://www.w3.org/2000/svg" p-id="2148" xmlns:xlink="http://www.w3.org/1999/xlink" width="200" height="200"><path d="M840.282353 391.649882h-2.529882c-17.468235 0-34.635294 5.12-49.212236 14.817883-13.131294-38.550588-46.260706-66.258824-89.027764-66.258824-18.853647 0-36.864 5.421176-51.802353 14.757647-13.071059-38.550588-46.200471-66.319059-88.96753-66.319059-16.685176 0-32.225882 4.216471-45.899294 11.685647V201.125647c0-54.091294-40.357647-97.882353-94.087529-97.882353a97.581176 97.581176 0 0 0-97.219765 97.822118v379.904l-59.151059-59.632941c-37.948235-38.249412-105.170824-32.768-137.517176 0-32.406588 32.828235-53.609412 98.725647-7.228236 145.709176l271.600942 273.408c5.601882 5.662118 11.806118 10.360471 18.251294 14.336 49.513412 40.96 106.315294 65.174588 226.304 65.174588 274.130824 0 299.550118-149.865412 299.550117-334.727529v-195.764706c0-54.031059-39.333647-97.822118-93.063529-97.822118z m41.863529 293.526589c0 156.431059-0.783059 283.286588-248.289882 283.286588-104.929882 0-167.875765-23.732706-215.642353-71.68L161.129412 637.771294c-22.768941-23.070118-17.046588-52.464941 1.566117-71.378823 18.612706-18.853647 52.766118-19.576471 70.836706-1.445647l139.264 140.227764V211.425882c0-25.6 20.660706-46.381176 46.019765-46.381176 25.539765 0 42.947765 20.781176 42.947765 46.381176v314.187294h0.481882a25.660235 25.660235 0 1 0 50.176 0h0.542118v-128.903529c0-25.479529 18.371765-46.260706 43.851294-46.260706 0 0 45.056-0.602353 45.056 46.381177v169.923764h0.542117a25.660235 25.660235 0 1 0 50.176 0h0.481883V448.271059c0-25.539765 18.070588-46.260706 43.610353-46.260706 0 0 46.019765 2.891294 46.019764 46.260706v149.383529h0.542118a25.780706 25.780706 0 0 0 25.057882 30.960941 25.118118 25.118118 0 0 0 24.937412-25.780705 29.876706 29.876706 0 0 0-0.481882-5.180236h0.542118V495.736471c0-25.6 18.913882-46.381176 44.393411-46.381177 0 0 44.634353-1.807059 44.634353 46.381177v189.44h-0.12047zM283.467294 347.015529V260.517647A149.744941 149.744941 0 0 1 270.757647 200.101647C270.757647 118.061176 336.414118 51.621647 417.249882 51.621647c80.956235 0 146.612706 66.439529 146.612706 148.48 0 11.203765-1.325176 22.046118-3.614117 32.527059 17.769412 0.602353 34.635294 8.131765 47.104 20.961882 4.818824-17.347765 7.408941-35.358118 7.469176-53.428706C614.821647 89.630118 526.456471 0 417.370353 0c-109.025882 0-197.571765 89.630118-197.571765 200.161882a200.222118 200.222118 0 0 0 63.789177 146.853647H283.407059z" fill="#999999" p-id="2149"></path></svg>