<?xml version="1.0" standalone="no"?><!DOCTYPE svg PUBLIC "-//W3C//DTD SVG 1.1//EN" "http://www.w3.org/Graphics/SVG/1.1/DTD/svg11.dtd"><svg t="1731295850225" class="icon" viewBox="0 0 1024 1024" version="1.1" xmlns="http://www.w3.org/2000/svg" p-id="1834" xmlns:xlink="http://www.w3.org/1999/xlink" width="200" height="200"><path d="M438.693647 130.891294c48.308706 0 85.232941 36.683294 89.148235 83.486118l0.361412 8.432941v93.123765c13.071059-6.987294 27.768471-10.962824 43.670588-10.962824 40.658824 0 72.282353 26.081882 84.690824 62.283294a93.967059 93.967059 0 0 1 49.27247-13.914353c40.658824 0 72.222118 26.081882 84.630589 62.283294 11.324235-7.047529 23.070118-11.745882 36.442353-13.372235l10.420706-0.602353h2.409411c48.128 0 84.088471 36.442353 88.124236 83.064471l0.421647 8.854588v194.56l-0.361412 21.323294c-3.614118 158.418824-40.116706 282.142118-284.611765 282.142118-114.206118 0-168.176941-22.768941-215.341176-61.199059a95.954824 95.954824 0 0 1-11.866353-8.432941l-5.421177-4.99953-258.469647-256.722823c-44.092235-44.092235-23.913412-106.014118 6.866824-136.794353 28.912941-28.912941 87.341176-35.177412 124.205176-5.903059l6.625883 5.903059 56.259764 56.018823V222.689882a92.16 92.16 0 0 1 92.521412-91.858823z m0 58.006588a43.730824 43.730824 0 0 0-43.369412 37.647059l-0.421647 5.903059v463.751529l-132.517647-131.734588c-17.106824-16.986353-49.633882-16.384-67.343059 1.325177-16.384 16.384-22.287059 41.200941-6.023529 61.982117l4.517647 5.059765 244.675765 243.109647c45.357176 45.056 105.291294 67.282824 205.101176 67.282824 209.92 0 233.351529-94.569412 235.941647-219.136l0.301177-46.802824V499.350588c0-36.743529-28.009412-42.526118-38.550589-43.369412l-3.855058-0.180705a42.044235 42.044235 0 0 0-41.923765 37.647058l-0.361412 5.903059v100.592941c0 13.312-10.300235 24.154353-23.732706 24.154353a24.274824 24.274824 0 0 1-24.395294-24.154353l0.120471-2.469647 0.421647-2.409411h-0.542118V454.836706c0-40.779294-43.791059-43.489882-43.791059-43.489882-22.166588 0-38.550588 16.384-41.08047 37.586823l-0.361412 5.903059v116.073412a24.274824 24.274824 0 0 1-24.335059 24.154353 24.274824 24.274824 0 0 1-24.335059-24.154353l0.120471-2.409412 0.361412-2.409412h-0.481883v-159.623529c0-44.092235-42.887529-43.489882-42.887529-43.489883a41.502118 41.502118 0 0 0-41.381647 37.647059l-0.361412 5.903059v125.711059a24.274824 24.274824 0 0 1-24.335059 24.154353 24.274824 24.274824 0 0 1-24.395294-24.154353l0.120471-2.409412 0.421647-2.409412H479.472941V232.448c0-24.094118-16.564706-43.550118-40.779294-43.550118zM431.766588 32.045176c100.171294 0 182.031059 77.522824 182.031059 174.019765 0 12.288-1.325176 24.395294-3.975529 36.261647a30.117647 30.117647 0 1 1-58.789647-13.071059c1.686588-7.529412 2.529882-15.299765 2.529882-23.190588 0-62.464-54.211765-113.844706-121.795765-113.844706-67.584 0-121.795765 51.380706-121.795764 113.844706 0 19.275294 1.084235 30.900706 4.035764 39.936l3.433412 9.456941a30.117647 30.117647 0 0 1-56.862118 19.275294c-8.613647-19.636706-10.842353-38.249412-10.842353-68.668235 0-96.496941 81.859765-174.08 182.031059-174.08z" fill="#000000" p-id="1835"></path></svg>