<?xml version="1.0" standalone="no"?><!DOCTYPE svg PUBLIC "-//W3C//DTD SVG 1.1//EN" "http://www.w3.org/Graphics/SVG/1.1/DTD/svg11.dtd"><svg t="1731295856785" class="icon" viewBox="0 0 2474 1024" version="1.1" xmlns="http://www.w3.org/2000/svg" p-id="2305" xmlns:xlink="http://www.w3.org/1999/xlink" width="483.203125" height="200"><path d="M1465.237333 298.752c52.394667 0 94.570667 17.6 110.421334 25.237333a8.042667 8.042667 0 0 1 4.074666 10.24l-18.005333 45.482667a8.362667 8.362667 0 0 1-10.026667 4.906667c-11.882667-3.242667-36.885333-9.109333-62.784-9.109334-79.061333 0-105.706667 58.986667-105.706666 136.533334 0 77.546667 26.645333 137.28 105.706666 137.28 25.941333 0 50.944-5.866667 62.826667-9.130667a8.362667 8.362667 0 0 1 10.005333 4.885333l17.941334 44.778667a8.042667 8.042667 0 0 1-4.053334 10.261333c-15.872 7.637333-58.026667 25.216-110.4 25.216-141.333333 0-179.008-104.917333-179.008-213.290666 0-108.373333 37.674667-213.290667 179.008-213.290667z m-407.36-0.042667c56.533333 0.405333 167.786667 16.554667 167.786667 213.269334 0 199.424-114.325333 213.290667-170.090667 213.290666h-2.282666c-56.533333-0.405333-167.786667-16.554667-167.786667-213.290666 0-199.402667 114.325333-213.269333 170.069333-213.269334z m737.002667 0c56.533333 0.405333 167.786667 16.554667 167.786667 213.269334 0 199.424-114.325333 213.290667-170.090667 213.290666h-2.282667c-56.533333-0.405333-167.786667-16.554667-167.786666-213.290666 0-199.402667 114.325333-213.269333 170.069333-213.269334z m-1109.909333 0c87.914667-1.749333 140.672 57.92 140.672 136.448 0 78.506667-52.736 136.426667-140.672 136.426667-36.693333 0-56.277333-0.490667-66.581334-0.938667a9.130667 9.130667 0 0 0-9.685333 9.024l-0.042667 134.144c0 6.186667-5.184 11.242667-11.562666 11.242667h-73.514667A11.413333 11.413333 0 0 1 512 713.813333V313.557333c0-5.461333 4.458667-9.941333 10.069333-10.133333 0 0 47.872-1.706667 99.669334-3.157333l10.773333-0.298667c17.984-0.490667 36.053333-0.938667 52.48-1.28z m370.602666 65.856c-63.722667 0-72.618667 58.026667-72.618666 147.413334 0 87.957333 8.896 147.413333 72.618666 147.413333 63.744 0 72.64-59.776 72.64-147.413333 0-86.784-8.896-147.413333-72.64-147.413334z m737.002667 0c-63.722667 0-72.618667 58.026667-72.618667 147.413334 0 87.957333 8.896 147.413333 72.618667 147.413333 63.744 0 72.64-59.776 72.64-147.413333 0-86.784-8.896-147.413333-72.64-147.413334z m-1133.141333 3.712c-21.674667 0-34.453333 0.234667-41.770667 0.469334a9.109333 9.109333 0 0 0-8.96 9.002666v114.773334c0 4.885333 3.946667 8.874667 8.96 9.024 7.317333 0.234667 20.096 0.469333 41.770667 0.469333 52.949333 0 82.56-21.184 82.56-66.858667 0-45.696-29.610667-66.88-82.56-66.88z" fill="#191919" p-id="2306"></path></svg>