<?xml version="1.0" standalone="no"?><!DOCTYPE svg PUBLIC "-//W3C//DTD SVG 1.1//EN" "http://www.w3.org/Graphics/SVG/1.1/DTD/svg11.dtd"><svg t="1731295862060" class="icon" viewBox="0 0 1024 1024" version="1.1" xmlns="http://www.w3.org/2000/svg" p-id="2619" xmlns:xlink="http://www.w3.org/1999/xlink" width="200" height="200"><path d="M495.232 556.074667v90.026666h-55.04V387.882667H529.066667c64.256 0 96.341333 27.221333 96.341333 81.664 0 26.453333-9.685333 47.658667-29.141333 63.658666-19.328 15.872-43.562667 23.466667-72.661334 22.826667h-28.373333z m0-125.482667v83.328h23.808c32.341333 0 48.512-14.08 48.512-42.197333 0-27.434667-16-41.130667-48-41.130667h-24.32z" fill="#000000" p-id="2620"></path><path d="M106.666667 195.242667a85.333333 85.333333 0 0 1 85.333333-85.333334h640a85.333333 85.333333 0 0 1 85.333333 85.333334v633.514666a85.333333 85.333333 0 0 1-85.333333 85.333334h-640a85.333333 85.333333 0 0 1-85.333333-85.333334V195.242667z m85.333333-17.066667a17.066667 17.066667 0 0 0-17.066667 17.066667v398.336l75.264-205.653334H314.88l92.672 258.133334H347.562667l-19.370667-59.136H234.368l-18.986667 59.136H174.933333v182.698666c0 9.386667 7.68 17.066667 17.066667 17.066667h640a17.066667 17.066667 0 0 0 17.066667-17.066667v-347.733333a76.8 76.8 0 0 1-28.501334 52.224c-19.370667 15.872-43.562667 23.466667-72.704 22.826667h-28.330666v90.026666h-54.997334V387.882667h88.832c58.965333 0 90.88 22.954667 95.701334 68.821333V195.242667a17.066667 17.066667 0 0 0-17.066667-17.066667h-640z m123.221333 366.250667L285.866667 454.912a99.370667 99.370667 0 0 1-3.968-22.485333H280.32c-0.64 7.552-2.133333 14.805333-4.48 21.802666l-29.482667 90.197334h68.821334z m404.309334-30.506667h23.850666c32.341333 0 48.512-14.08 48.512-42.197333 0-27.434667-16-41.130667-48-41.130667h-24.32v83.328z" fill="#000000" p-id="2621"></path></svg>