<?xml version="1.0" standalone="no"?><!DOCTYPE svg PUBLIC "-//W3C//DTD SVG 1.1//EN" "http://www.w3.org/Graphics/SVG/1.1/DTD/svg11.dtd"><svg t="1731295847150" class="icon" viewBox="0 0 1295 1024" version="1.1" xmlns="http://www.w3.org/2000/svg" p-id="1670" xmlns:xlink="http://www.w3.org/1999/xlink" width="252.9296875" height="200"><path d="M694.151529 942.622118l-0.602353-1.024c-0.813176-1.415529-2.228706-3.222588-3.463529-4.818824l-0.421647-0.692706c-0.632471-0.903529-1.385412-1.867294-1.867294-2.770823l-3.102118-4.48753-0.361412-0.421647-151.943529-233.893647a125.711059 125.711059 0 0 1-18.070588-92.79247 122.699294 122.699294 0 0 1 50.507294-78.817883 116.615529 116.615529 0 0 1 118.061176-8.583529V123.392C682.706824 55.416471 733.936941 0 796.882824 0c62.855529 0 114.176 55.416471 114.176 123.482353v125.590588a91.557647 91.557647 0 0 1 28.672-4.668235c29.756235 0 57.886118 14.336 77.703529 39.092706a96.527059 96.527059 0 0 1 52.073412-16.143059 94.870588 94.870588 0 0 1 58.729411 20.751059c13.101176 10.24 24.094118 23.491765 32.075295 38.881882 9.276235-2.921412 18.913882-4.517647 28.581647-4.517647 58.578824 0 106.194824 55.416471 106.194823 123.482353v328.523294c0 72.673882-32.135529 152.997647-81.859765 204.739765-27.708235 28.822588-57.524706 44.784941-84.239058 44.784941H804.382118c-60.837647 0-88.154353-45.116235-110.230589-81.377882z m441.434353 20.660706c9.848471 0 34.334118-16.444235 58.337883-52.856471 25.750588-39.303529 40.508235-86.347294 40.508235-128.903529V443.602824c0-27.617882-17.046588-51.591529-36.472471-51.59153a25.901176 25.901176 0 0 0-12.288 3.162353v118.181647h-0.12047c-1.385412 19.817412-17.287529 35.177412-36.472471 35.267765-19.245176 0-35.237647-15.661176-36.532706-35.237647h-0.060235V410.804706l-2.198588-28.792471c-1.897412-25.660235-18.311529-46.592-36.653177-46.592-8.131765 0-16.474353 4.517647-23.070117 12.047059v127.819294c-0.060235 20.901647-16.444235 37.797647-36.683294 37.857883-20.178824-0.090353-36.532706-16.986353-36.592942-37.857883v-112.459294l-2.740705-13.131294c-4.517647-21.865412-19.696941-38.309647-35.147295-38.309647-10.541176 0-21.082353 7.469176-28.220235 19.606588l-1.174588 126.795294v47.676236c0 18.492235-14.667294 33.701647-32.557177 33.701647h-7.920941c-17.980235 0-32.587294-15.209412-32.587294-33.701647V124.897882l-0.210823-13.43247c0-28.461176-19.998118-51.501176-44.724706-51.501177-24.696471 0-44.694588 23.100235-44.694589 51.501177l1.596236 369.844706c0.090353 1.114353 0.120471 2.258824 0.12047 3.403294v146.733176c-0.301176 18.883765-13.944471 34.695529-32.045176 37.104941a36.743529 36.743529 0 0 1-40.056471-27.527529l-13.763764-41.472a49.784471 49.784471 0 0 0-31.774118-21.985882 48.489412 48.489412 0 0 0-37.466353 7.770353c-22.889412 15.902118-28.943059 47.947294-13.613176 71.619764l156.641882 240.730353 0.512 0.662588 1.927529 2.95153 2.409412 3.70447c1.475765 2.409412 3.072 4.698353 4.487529 6.475295l1.024 1.325176 0.752942 1.656471c24.395294 40.297412 33.792 49.001412 52.314353 49.001411h335.209411v-0.240941 0.060236z" fill="#000000" p-id="1671"></path><path d="M308.495059 30.117647h60.235294v843.294118h-60.235294zM450.951529 888.832l-105.953882 105.984a9.035294 9.035294 0 0 1-12.769882 0l-105.984-105.984A9.035294 9.035294 0 0 1 232.628706 873.411765h211.937882a9.035294 9.035294 0 0 1 6.384941 15.420235z" fill="#000000" p-id="1672"></path><path d="M150.588235 1024H90.352941V180.705882h60.235294z" fill="#000000" p-id="1673"></path><path d="M8.131765 165.285647l105.953882-105.984a9.035294 9.035294 0 0 1 12.769882 0l105.984 105.984A9.035294 9.035294 0 0 1 226.424471 180.705882H14.516706a9.035294 9.035294 0 0 1-6.415059-15.420235z" fill="#000000" p-id="1674"></path></svg>