<?xml version="1.0" standalone="no"?><!DOCTYPE svg PUBLIC "-//W3C//DTD SVG 1.1//EN" "http://www.w3.org/Graphics/SVG/1.1/DTD/svg11.dtd"><svg t="1731295874237" class="icon" viewBox="0 0 1024 1024" version="1.1" xmlns="http://www.w3.org/2000/svg" p-id="3091" xmlns:xlink="http://www.w3.org/1999/xlink" width="200" height="200"><path d="M505.856 1018.4192H223.1808A222.1568 222.1568 0 0 1 6.656 791.5008V228.9152A222.1568 222.1568 0 0 1 223.1808 2.2528h530.176a222.1568 222.1568 0 0 1 216.5248 226.6624v298.2912a45.4144 45.4144 0 1 1-90.7776 0V228.9152a131.3792 131.3792 0 0 0-125.7472-136.1408H223.1808a131.3792 131.3792 0 0 0-125.696 136.1408v562.3808a131.3792 131.3792 0 0 0 125.696 136.3456h282.624a45.3632 45.3632 0 1 1 0 90.7776z" p-id="3092"></path><path d="M458.6496 317.696h48.7936v242.944H458.6496z" p-id="3093"></path><path d="M458.5984 303.104h48.7936a14.5408 14.5408 0 0 1 14.5408 14.5408v242.9952a14.5408 14.5408 0 0 1-14.5408 14.5408h-48.7936a14.5408 14.5408 0 0 1-14.5408-14.5408V317.6448a14.5408 14.5408 0 0 1 14.5408-14.5408z m34.2528 29.1328h-19.6608v213.8112h19.6608z" p-id="3094"></path><path d="M400.9472 560.64m15.4624 0l133.2736 0q15.4624 0 15.4624 15.4624l0 18.3296q0 15.4624-15.4624 15.4624l-133.2736 0q-15.4624 0-15.4624-15.4624l0-18.3296q0-15.4624 15.4624-15.4624Z" p-id="3095"></path><path d="M422.912 546.048H543.1296a36.608 36.608 0 0 1 36.5568 36.5568v5.12a36.608 36.608 0 0 1-36.5568 36.5568H422.912a36.608 36.608 0 0 1-36.5568-36.4032v-5.12a36.608 36.608 0 0 1 36.5568-36.7104z m120.2176 49.2544a7.424 7.424 0 0 0 7.424-7.424v-5.12a7.424 7.424 0 0 0-7.424-7.5776H422.912a7.424 7.424 0 0 0-7.424 7.424v5.12a7.424 7.424 0 0 0 7.424 7.5776z" p-id="3096"></path><path d="M317.5424 317.696h49.2544v22.272a15.36 15.36 0 0 1-15.36 15.36H332.9024a15.36 15.36 0 0 1-15.36-15.36v-22.272z" p-id="3097"></path><path d="M317.5424 303.104h49.2544a14.5408 14.5408 0 0 1 14.5408 14.5408v15.7696a36.608 36.608 0 0 1-36.5568 36.5568h-5.12A36.608 36.608 0 0 1 303.0016 333.4144v-15.7696A14.5408 14.5408 0 0 1 317.5424 303.104z" p-id="3098"></path><path d="M599.2448 317.696h49.2544v22.272a15.36 15.36 0 0 1-15.36 15.36h-18.5344a15.36 15.36 0 0 1-15.36-15.36v-22.272z" p-id="3099"></path><path d="M599.1936 303.104h49.2544a14.5408 14.5408 0 0 1 14.5408 14.5408v15.7696a36.608 36.608 0 0 1-36.5568 36.5568h-5.12a36.608 36.608 0 0 1-36.6592-36.5568v-15.7696a14.5408 14.5408 0 0 1 14.5408-14.5408z" p-id="3100"></path><path d="M348.2624 268.3904h270.336a29.9008 29.9008 0 0 1 29.9008 29.9008v19.3536H317.5424V299.1104a30.72 30.72 0 0 1 30.72-30.72z" p-id="3101"></path><path d="M361.5232 253.8496h244.48a57.1392 57.1392 0 0 1 57.0368 57.0368v6.7584a14.5408 14.5408 0 0 1-14.5408 14.5408H317.5424A14.5408 14.5408 0 0 1 303.0016 317.696v-5.12A58.624 58.624 0 0 1 361.5232 253.8496z m271.36 49.2544a28.0064 28.0064 0 0 0-26.88-20.1216H361.5232A29.44 29.44 0 0 0 333.7216 303.104z" p-id="3102"></path><path d="M907.2128 824.064H708.096a45.056 45.056 0 0 1 0-90.1632h199.1168a45.056 45.056 0 0 1 0 90.1632z" p-id="3103"></path><path d="M807.6288 923.5968a45.056 45.056 0 0 1-45.056-45.056V679.424a45.056 45.056 0 0 1 90.1632 0v199.1168a45.056 45.056 0 0 1-45.1072 45.056z" p-id="3104"></path></svg>