<?xml version="1.0" standalone="no"?><!DOCTYPE svg PUBLIC "-//W3C//DTD SVG 1.1//EN" "http://www.w3.org/Graphics/SVG/1.1/DTD/svg11.dtd"><svg t="1731295777740" class="icon" viewBox="0 0 1024 1024" version="1.1" xmlns="http://www.w3.org/2000/svg" p-id="2434" xmlns:xlink="http://www.w3.org/1999/xlink" width="200" height="200"><path d="M746.773227 168.27972h256.255744c11.252747 0 19.948052-9.206793 19.948052-19.948052 0-11.252747-9.206793-19.948052-19.948052-19.948052H746.773227c-11.252747 0-19.948052 9.206793-19.948052 19.948052 0 10.741259 9.206793 19.948052 19.948052 19.948052z" fill="#707070" p-id="2435"></path><path d="M895.104895 276.203796v-256.255744c0-11.252747-9.206793-19.948052-19.948052-19.948052-11.252747 0-19.948052 9.206793-19.948052 19.948052V276.203796c0 11.252747 9.206793 19.948052 19.948052 19.948052 10.741259 0 19.948052-9.206793 19.948052-19.948052z" fill="#707070" p-id="2436"></path><path d="M704.831169 418.909091h-417.374626c-14.321678 0-25.574426-11.764236-25.574425-25.574426 0-14.321678 11.764236-25.574426 25.574425-25.574425h417.374626c14.321678 0 25.574426 11.764236 25.574425 25.574425s-11.252747 25.574426-25.574425 25.574426z" fill="#707070" p-id="2437"></path><path d="M521.718282 396.403596v416.351649c0 14.321678-11.764236 25.574426-25.574426 25.574425-14.321678 0-25.574426-11.764236-25.574425-25.574425v-416.351649c0-14.321678 11.764236-25.574426 25.574425-25.574425 14.321678-0.511489 25.574426 11.252747 25.574426 25.574425z" fill="#707070" p-id="2438"></path><path d="M0 511.488511v-445.506493c0-37.85015 27.62038-65.470529 64.959041-65.470529h583.096903c19.948052 0 32.223776 15.856144 26.085914 33.246753-4.091908 10.741259-12.275724 15.856144-23.016983 16.879121H67.516484c-13.298701 0-17.390609 4.091908-17.39061 17.390609V956.483516c0 12.787213 4.603397 17.390609 17.39061 17.39061h887.432567c12.787213 0 17.902098-5.114885 17.902098-17.902098V367.248751c0-15.856144 7.672328-25.574426 21.994006-27.620379 13.298701-1.534466 26.085914 8.183816 27.108891 21.482517v7.672328c0 195.9001-0.511489 391.8002 0.511488 588.211788 0 34.781219-25.062937 67.004995-67.004995 67.004995H67.004995c-35.292707 0-60.867133-20.971029-66.493506-54.217782-0.511489-3.58042-0.511489-7.160839-0.511489-10.741259V511.488511z" fill="#707070" p-id="2439"></path></svg>