<?xml version="1.0" standalone="no"?><!DOCTYPE svg PUBLIC "-//W3C//DTD SVG 1.1//EN" "http://www.w3.org/Graphics/SVG/1.1/DTD/svg11.dtd"><svg t="1731295785592" class="icon" viewBox="0 0 1024 1024" version="1.1" xmlns="http://www.w3.org/2000/svg" p-id="2752" xmlns:xlink="http://www.w3.org/1999/xlink" width="200" height="200"><path d="M211.2 910.4h-6.4c-19.2-3.2-30.4-22.4-27.2-40 3.2-9.6 6.4-16 12.8-19.2 6.4-3.2 16-6.4 22.4-6.4h33.6c0-139.2 80-219.2 132.8-272 6.4-9.6 16-19.2 22.4-27.2l3.2-3.2c12.8-12.8 19.2-19.2 19.2-30.4 0-3.2-9.6-12.8-30.4-27.2-52.8-40-148.8-112-148.8-307.2H208c-16 0-30.4-16-30.4-33.6v-1.6c0-16 12.8-30.4 30.4-30.4h609.6c16 0 30.4 16 30.4 33.6 0 19.2-16 33.6-33.6 33.6h-33.6c0 195.2-96 268.8-142.4 304l-3.2 3.2c-33.6 16-33.6 27.2-33.6 27.2 0 9.6 12.8 22.4 30.4 36.8 6.4 6.4 12.8 9.6 16 16l9.6 9.6c52.8 59.2 123.2 139.2 123.2 268.8h33.6c16 3.2 27.2 12.8 30.4 27.2 3.2 16-6.4 36.8-27.2 40H211.2z m102.4-65.6h400c0-105.6-59.2-172.8-102.4-222.4l-22.4-22.4c-30.4-27.2-52.8-52.8-52.8-86.4 0-40 27.2-59.2 62.4-80 46.4-40 115.2-92.8 115.2-254.4h-400c0 161.6 68.8 216 123.2 251.2 30.4 16 59.2 40 59.2 80 0 33.6-33.6 65.6-65.6 99.2l-14.4 12.8c-43.2 49.6-102.4 116.8-102.4 222.4zM480 779.2c-16-3.2-27.2-12.8-30.4-27.2-3.2-16 6.4-36.8 27.2-40h68.8c16 3.2 27.2 12.8 30.4 27.2 3.2 16-6.4 36.8-27.2 40H480z m0 0" p-id="2753"></path></svg>