<?xml version="1.0" standalone="no"?><!DOCTYPE svg PUBLIC "-//W3C//DTD SVG 1.1//EN" "http://www.w3.org/Graphics/SVG/1.1/DTD/svg11.dtd"><svg t="1731295852699" class="icon" viewBox="0 0 1024 1024" version="1.1" xmlns="http://www.w3.org/2000/svg" p-id="1991" xmlns:xlink="http://www.w3.org/1999/xlink" width="200" height="200"><path d="M822.4 160v-75.2h84c23.2 0 42.4-19.2 42.4-42.4S930.4 0 906.4 0h-768C115.2 0 96 19.2 96 42.4s19.2 42.4 42.4 42.4h86.4V160c0 159.2 80 295.2 192.8 349.6C304.8 563.2 224 700 224 859.2v79.2H138.4c-23.2 0-42.4 19.2-42.4 42.4 0 24 19.2 42.4 42.4 42.4h768c23.2 0 42.4-19.2 42.4-42.4s-19.2-42.4-42.4-42.4h-85.6v-79.2c0-159.2-80-295.2-192.8-349.6C741.6 456.8 822.4 320 822.4 160z m-556 699.2C266.4 688 376 546.4 512 539.2V920c-32.8 1.6-60.8 8.8-77.6 19.2h-168v-80z m512 0v79.2H612.8c-17.6-10.4-46.4-17.6-79.2-19.2V539.2c136 7.2 244.8 148.8 244.8 320zM533.6 480v-54.4c88.8-5.6 160-80 160-170.4H352c0 90.4 71.2 164.8 160 170.4V480c-135.2-8-244-148.8-244-320v-75.2h512V160c0 172.8-110.4 314.4-246.4 320z" p-id="1992"></path></svg>